<mxfile host="Electron" modified="2024-02-01T13:53:18.831Z" agent="Mozilla/5.0 (Windows NT 10.0; Win64; x64) AppleWebKit/537.36 (KHTML, like Gecko) draw.io/21.6.1 Chrome/112.0.5615.204 Electron/24.6.1 Safari/537.36" etag="aquyK8BmaepfpKxPa3wj" version="21.6.1" type="device">
  <diagram name="PÃ¡gina-1" id="EEX3fp__zVsrqpNl_sZB">
    <mxGraphModel dx="1173" dy="691" grid="1" gridSize="10" guides="1" tooltips="1" connect="1" arrows="1" fold="1" page="1" pageScale="1" pageWidth="1169" pageHeight="827" math="0" shadow="0">
      <root>
        <mxCell id="0" />
        <mxCell id="1" parent="0" />
        <mxCell id="bJjVDpmbFpppyaKH1ni8-2" value="Consumo" style="swimlane;fontStyle=1;align=center;verticalAlign=top;childLayout=stackLayout;horizontal=1;startSize=26;horizontalStack=0;resizeParent=1;resizeParentMax=0;resizeLast=0;collapsible=1;marginBottom=0;whiteSpace=wrap;html=1;" vertex="1" parent="1">
          <mxGeometry x="460" y="190" width="420" height="346" as="geometry" />
        </mxCell>
        <mxCell id="bJjVDpmbFpppyaKH1ni8-3" value="- kilometros: double" style="text;strokeColor=none;fillColor=none;align=left;verticalAlign=top;spacingLeft=4;spacingRight=4;overflow=hidden;rotatable=0;points=[[0,0.5],[1,0.5]];portConstraint=eastwest;whiteSpace=wrap;html=1;" vertex="1" parent="bJjVDpmbFpppyaKH1ni8-2">
          <mxGeometry y="26" width="420" height="26" as="geometry" />
        </mxCell>
        <mxCell id="bJjVDpmbFpppyaKH1ni8-6" value="- litros: double" style="text;strokeColor=none;fillColor=none;align=left;verticalAlign=top;spacingLeft=4;spacingRight=4;overflow=hidden;rotatable=0;points=[[0,0.5],[1,0.5]];portConstraint=eastwest;whiteSpace=wrap;html=1;" vertex="1" parent="bJjVDpmbFpppyaKH1ni8-2">
          <mxGeometry y="52" width="420" height="26" as="geometry" />
        </mxCell>
        <mxCell id="bJjVDpmbFpppyaKH1ni8-7" value="- litrosConsumidos: double" style="text;strokeColor=none;fillColor=none;align=left;verticalAlign=top;spacingLeft=4;spacingRight=4;overflow=hidden;rotatable=0;points=[[0,0.5],[1,0.5]];portConstraint=eastwest;whiteSpace=wrap;html=1;" vertex="1" parent="bJjVDpmbFpppyaKH1ni8-2">
          <mxGeometry y="78" width="420" height="26" as="geometry" />
        </mxCell>
        <mxCell id="bJjVDpmbFpppyaKH1ni8-9" value="- vMed: int" style="text;strokeColor=none;fillColor=none;align=left;verticalAlign=top;spacingLeft=4;spacingRight=4;overflow=hidden;rotatable=0;points=[[0,0.5],[1,0.5]];portConstraint=eastwest;whiteSpace=wrap;html=1;" vertex="1" parent="bJjVDpmbFpppyaKH1ni8-2">
          <mxGeometry y="104" width="420" height="26" as="geometry" />
        </mxCell>
        <mxCell id="bJjVDpmbFpppyaKH1ni8-10" value="- pGas: double" style="text;strokeColor=none;fillColor=none;align=left;verticalAlign=top;spacingLeft=4;spacingRight=4;overflow=hidden;rotatable=0;points=[[0,0.5],[1,0.5]];portConstraint=eastwest;whiteSpace=wrap;html=1;" vertex="1" parent="bJjVDpmbFpppyaKH1ni8-2">
          <mxGeometry y="130" width="420" height="26" as="geometry" />
        </mxCell>
        <mxCell id="bJjVDpmbFpppyaKH1ni8-4" value="" style="line;strokeWidth=1;fillColor=none;align=left;verticalAlign=middle;spacingTop=-1;spacingLeft=3;spacingRight=3;rotatable=0;labelPosition=right;points=[];portConstraint=eastwest;strokeColor=inherit;" vertex="1" parent="bJjVDpmbFpppyaKH1ni8-2">
          <mxGeometry y="156" width="420" height="8" as="geometry" />
        </mxCell>
        <mxCell id="bJjVDpmbFpppyaKH1ni8-5" value="+ getTiempo() : LocalTime" style="text;strokeColor=none;fillColor=none;align=left;verticalAlign=top;spacingLeft=4;spacingRight=4;overflow=hidden;rotatable=0;points=[[0,0.5],[1,0.5]];portConstraint=eastwest;whiteSpace=wrap;html=1;" vertex="1" parent="bJjVDpmbFpppyaKH1ni8-2">
          <mxGeometry y="164" width="420" height="26" as="geometry" />
        </mxCell>
        <mxCell id="bJjVDpmbFpppyaKH1ni8-12" value="+ consumoMedio(): double" style="text;strokeColor=none;fillColor=none;align=left;verticalAlign=top;spacingLeft=4;spacingRight=4;overflow=hidden;rotatable=0;points=[[0,0.5],[1,0.5]];portConstraint=eastwest;whiteSpace=wrap;html=1;" vertex="1" parent="bJjVDpmbFpppyaKH1ni8-2">
          <mxGeometry y="190" width="420" height="26" as="geometry" />
        </mxCell>
        <mxCell id="bJjVDpmbFpppyaKH1ni8-13" value="+ consumoEuros(): double" style="text;strokeColor=none;fillColor=none;align=left;verticalAlign=top;spacingLeft=4;spacingRight=4;overflow=hidden;rotatable=0;points=[[0,0.5],[1,0.5]];portConstraint=eastwest;whiteSpace=wrap;html=1;" vertex="1" parent="bJjVDpmbFpppyaKH1ni8-2">
          <mxGeometry y="216" width="420" height="26" as="geometry" />
        </mxCell>
        <mxCell id="bJjVDpmbFpppyaKH1ni8-14" value="+ setKms(kilometros: double)" style="text;strokeColor=none;fillColor=none;align=left;verticalAlign=top;spacingLeft=4;spacingRight=4;overflow=hidden;rotatable=0;points=[[0,0.5],[1,0.5]];portConstraint=eastwest;whiteSpace=wrap;html=1;" vertex="1" parent="bJjVDpmbFpppyaKH1ni8-2">
          <mxGeometry y="242" width="420" height="26" as="geometry" />
        </mxCell>
        <mxCell id="bJjVDpmbFpppyaKH1ni8-18" value="+ setLitros(litros: double)" style="text;strokeColor=none;fillColor=none;align=left;verticalAlign=top;spacingLeft=4;spacingRight=4;overflow=hidden;rotatable=0;points=[[0,0.5],[1,0.5]];portConstraint=eastwest;whiteSpace=wrap;html=1;" vertex="1" parent="bJjVDpmbFpppyaKH1ni8-2">
          <mxGeometry y="268" width="420" height="26" as="geometry" />
        </mxCell>
        <mxCell id="bJjVDpmbFpppyaKH1ni8-19" value="+ setVmed(vMed: int)" style="text;strokeColor=none;fillColor=none;align=left;verticalAlign=top;spacingLeft=4;spacingRight=4;overflow=hidden;rotatable=0;points=[[0,0.5],[1,0.5]];portConstraint=eastwest;whiteSpace=wrap;html=1;" vertex="1" parent="bJjVDpmbFpppyaKH1ni8-2">
          <mxGeometry y="294" width="420" height="26" as="geometry" />
        </mxCell>
        <mxCell id="bJjVDpmbFpppyaKH1ni8-17" value="+ setPgas(pGas: double)" style="text;strokeColor=none;fillColor=none;align=left;verticalAlign=top;spacingLeft=4;spacingRight=4;overflow=hidden;rotatable=0;points=[[0,0.5],[1,0.5]];portConstraint=eastwest;whiteSpace=wrap;html=1;" vertex="1" parent="bJjVDpmbFpppyaKH1ni8-2">
          <mxGeometry y="320" width="420" height="26" as="geometry" />
        </mxCell>
      </root>
    </mxGraphModel>
  </diagram>
</mxfile>
